<svg id="Layer_1" enable-background="new 0 0 512.002 512.002" height="512" viewBox="0 0 512.002 512.002" width="512" xmlns="http://www.w3.org/2000/svg"><g><g clip-rule="evenodd" fill-rule="evenodd"><path d="m187.376 432v-160c0-11-8.999-20-20-20-11 0-20 9-20 20v160c0 11 8.999 20 20 20 11 0 20-9 20-20z" fill="#fff2a0"/><path d="m187.376 272v160c0 11-8.999 20-20 20s-20-9-20-20v-160c0-11 8.999-20 20-20 11 0 20 9 20 20zm160-109.998c0-5.492-2.244-10.486-5.857-14.108-7.61 9.896-19.569 16.274-33.017 16.274-.958 0-1.909-.034-2.851-.098.149 1.513.226 3.046.226 4.598 0 25.681-20.819 46.5-46.5 46.5-18.564 0-34.585-10.879-42.04-26.609-7.604 5.42-16.91 8.609-26.96 8.609-19.939 0-36.944-12.551-43.553-30.182-6.068 3.456-13.089 5.432-20.572 5.432-15.367 0-28.789-8.327-35.998-20.717-1.824 3.013-2.877 6.54-2.877 10.301v320c0 11 9 20 19.999 20h220.001c11 0 20-9 20-20v-50-40-140-40-50zm-99.998 109.998c0-11 8.999-20 20-20 11 0 20 9 20 20v160c0 11-9 20-20 20s-20-9-20-20z" fill="#ffcd69"/><path d="m247.378 272v160c0 11 8.999 20 20 20s20-9 20-20v-160c0-11-9-20-20-20-11.001 0-20 9-20 20z" fill="#fff2a0"/><path d="m347.376 252.002h40v140h-40v40h40c22 0 40-18 40-40v-140c0-22-18-40-40-40h-40z" fill="#fff7bf"/><path d="m259.377 215.168c25.681 0 46.5-20.819 46.5-46.5 0-1.552-.078-3.085-.226-4.598.942.064 1.892.098 2.851.098 13.449 0 25.408-6.378 33.017-16.274 5.398-7.02 8.608-15.811 8.608-25.351 0-22.989-18.636-41.625-41.625-41.625-4.428 0-8.693.694-12.695 1.974-6.32-18.177-23.6-31.224-43.929-31.224-2.755 0-5.452.241-8.075.7-6.736-24.427-29.109-42.368-55.677-42.368-31.894 0-57.75 25.856-57.75 57.75 0 7.908 1.591 15.444 4.468 22.308-2.773-.582-5.647-.89-8.593-.89-22.989 0-41.625 18.636-41.625 41.625 0 7.622 2.049 14.765 5.625 20.91 7.211 12.388 20.633 20.715 36 20.715 7.483 0 14.504-1.976 20.572-5.432 6.609 17.631 23.614 30.182 43.553 30.182 10.05 0 19.355-3.189 26.96-8.609 7.456 15.73 23.477 26.609 42.041 26.609z" fill="#fff"/></g><g><path d="m387.376 202.002h-29.999-.001v-40c0-5.124-1.299-10.065-3.728-14.452 4.123-7.414 6.478-15.939 6.478-25.007 0-28.466-23.159-51.625-51.625-51.625-2.307 0-4.602.152-6.871.456-9.921-18.415-29.526-30.123-50.958-29.693-10.393-24.911-35.022-41.681-62.546-41.681-37.357 0-67.749 30.393-67.749 67.75 0 3.938.333 7.826.995 11.646-26.188 2.466-46.746 24.576-46.746 51.396 0 7.512 1.626 14.646 4.523 21.091-1.164 3.233-1.772 6.654-1.772 10.118v320c0 16.542 13.457 30 29.999 30h220.001c16.542 0 29.999-13.458 29.999-30v-40h.001 29.999c27.57 0 50-22.43 50-50v-140c0-27.569-22.43-49.999-50-49.999zm-30 60s.001 0 0 0h20v120h-19.999-.001zm-231.124-162.834c2.199 0 4.399.228 6.538.677 3.641.765 7.398-.553 9.765-3.418s2.949-6.807 1.513-10.234c-2.448-5.843-3.69-12.048-3.69-18.443 0-26.33 21.42-47.75 47.749-47.75 21.42 0 40.35 14.403 46.034 35.026 1.37 4.967 6.283 8.083 11.366 7.192 2.086-.365 4.223-.551 6.351-.551 15.528 0 29.386 9.85 34.483 24.509 1.781 5.125 7.322 7.893 12.493 6.24 3.108-.995 6.354-1.499 9.647-1.499 17.438 0 31.625 14.187 31.625 31.625s-14.187 31.625-31.625 31.625c-.711 0-1.444-.025-2.179-.075-2.931-.197-5.804.905-7.851 3.015-2.046 2.11-3.061 5.014-2.773 7.939.118 1.209.179 2.427.179 3.621 0 20.126-16.374 36.5-36.5 36.5-11.511 0-22.29-5.524-29.115-14.512 10.523-10.51 16.615-24.888 16.615-39.988 0-5.523-4.478-10-10-10s-10 4.477-10 10c0 11.788-5.734 22.906-15.34 29.741-.009.006-.017.014-.026.021-6.193 4.408-13.501 6.739-21.134 6.739-15.138 0-28.878-9.521-34.189-23.693-1.028-2.743-3.207-4.896-5.962-5.893-2.753-.997-5.806-.736-8.352.714-4.734 2.697-10.137 4.122-15.622 4.122-17.438 0-31.626-14.187-31.626-31.625s14.187-31.625 31.626-31.625zm201.125 392.834h-220.001c-5.514 0-9.999-4.486-9.999-10v-308.434c8.247 5.585 18.187 8.85 28.875 8.85 5.383 0 10.721-.843 15.805-2.475 10.118 16.615 28.44 27.225 48.32 27.225 8.193 0 16.146-1.736 23.454-5.08 10.532 14.282 27.46 23.08 45.546 23.08 29.468 0 53.738-22.676 56.28-51.495 7.962-1.109 15.344-4.045 21.719-8.363v316.691c0 5.515-4.485 10.001-9.999 10.001zm89.999-100c0 16.542-13.458 30-30 30h-29.999-.001v-20h.001 29.999c5.522 0 10-4.477 10-10v-140c0-5.523-4.478-10-10-10h-29.999-.001v-20h.001 29.999c16.542 0 30 13.458 30 30z"/><path d="m167.375 242c-16.542 0-29.999 13.458-29.999 30v160c0 16.542 13.458 30 30 30s30-13.458 30-30v-35.003c0-5.523-4.478-10-10-10s-10 4.477-10 10v35.003c0 5.514-4.486 10-10.001 10-5.514 0-9.999-4.486-9.999-10v-160c0-5.514 4.486-10 10-10s10 4.486 10 10v34.997c0 5.523 4.478 10 10 10s10-4.477 10-10v-34.997c0-16.542-13.458-30-30.001-30z"/><path d="m267.377 242c-16.542 0-29.999 13.458-29.999 30v160c0 16.542 13.458 30 30 30s29.999-13.458 29.999-30v-160c0-16.542-13.458-30-30-30zm10 190c0 5.514-4.486 10-10 10s-9.999-4.486-9.999-10v-160c0-5.514 4.485-10 9.999-10h.001c5.514 0 9.999 4.486 9.999 10z"/><path d="m187.376 341.997c-5.522 0-10 4.48-10 10.003s4.478 10 10 10 10-4.477 10-10v-.007c0-5.523-4.478-9.996-10-9.996z"/></g></g></svg>